<?xml version="1.0" standalone="no"?><!DOCTYPE svg PUBLIC "-//W3C//DTD SVG 1.1//EN" "http://www.w3.org/Graphics/SVG/1.1/DTD/svg11.dtd"><svg t="1640236895288" class="icon" viewBox="0 0 1024 1024" version="1.1" xmlns="http://www.w3.org/2000/svg" p-id="1092" xmlns:xlink="http://www.w3.org/1999/xlink" width="200" height="200"><defs><style type="text/css"></style></defs><path d="M793.25878907 371.38378905C793.25878907 332.703125 761.61816406 301.0625 722.9375 301.0625s-70.32128906 31.640625-70.32128908 70.32128908 31.640625 70.32128906 70.32128908 70.32128905 70.32128906-31.640625 70.32128905-70.32128905z" p-id="1093"></path><path d="M90.125 160.44628906v703.13378906h421.875v-70.32128905H160.44628906V701.84375001l210.93749999-210.9375L512 631.52246094l49.22753906-49.22753907-189.84374998-189.84374999-210.93750002 210.93749999V230.74121093h703.13378906v246.08496095l70.32128907 70.32128906V160.41992187z" p-id="1094"></path><path d="M874.10058594 782.71191406L923.328125 733.484375l-165.24316406-165.24316406-165.24316407 165.24316406 49.22753907 49.22753906L722.9375 701.84375001v196.88378903h70.32128905V701.84375001z" p-id="1095"></path></svg>