<?xml version="1.0" standalone="no"?>
<!DOCTYPE svg
          PUBLIC "-//W3C//DTD SVG 1.1//EN" "http://www.w3.org/Graphics/SVG/1.1/DTD/svg11.dtd"><svg t="1640249081204"
     viewBox="0 0 1024 1024"
     version="1.1"
     xmlns="http://www.w3.org/2000/svg"
     xmlns:xlink="http://www.w3.org/1999/xlink"
     width="200"
     height="200">
      <style>
            path {
                  fill: #efefef;
            }
      </style>
      <path
            d="M518.72 455.46666667c-3.41333333-4.37333333-10.02666667-4.37333333-13.44 0l-119.46666667 151.14666666c-4.37333333 5.54666667-0.42666667 13.76 6.72 13.76h78.82666667V878.93333333c0 4.69333333 3.84 8.53333333 8.53333333 8.53333334h64c4.69333333 0 8.53333333-3.84 8.53333334-8.53333334V620.48H631.46666667c7.14666667 0 11.09333333-8.21333333 6.72-13.76L518.72 455.46666667z">
      </path>
      <path
            d="M831.36 357.01333333C782.50666667 228.16 658.02666667 136.53333333 512.21333333 136.53333333S241.92 228.05333333 193.06666667 356.90666667C101.65333333 380.90666667 34.13333333 464.21333333 34.13333333 563.2c0 117.86666667 95.46666667 213.33333333 213.22666667 213.33333333H290.13333333c4.69333333 0 8.53333333-3.84 8.53333334-8.53333333v-64c0-4.69333333-3.84-8.53333333-8.53333334-8.53333333h-42.77333333c-35.94666667 0-69.76-14.29333333-94.93333333-40.21333334-25.06666667-25.81333333-38.4-60.58666667-37.22666667-96.64 0.96-28.16 10.56-54.61333333 27.94666667-76.90666666 17.81333333-22.72 42.77333333-39.25333333 70.50666666-46.61333334l40.42666667-10.56 14.82666667-39.04c9.17333333-24.32 21.97333333-47.04 38.08-67.62666666 15.89333333-20.48 34.77333333-38.29333333 55.89333333-53.22666667 43.84-30.82666667 95.46666667-47.14666667 149.33333333-47.14666667s105.49333333 16.32 149.33333334 47.14666667c21.22666667 14.93333333 40 32.85333333 55.89333333 53.22666667 16.10666667 20.58666667 28.90666667 43.41333333 38.08 67.62666666l14.72 38.93333334 40.32 10.66666666C868.37333333 450.66666667 908.8 503.25333333 908.8 563.2c0 35.30666667-13.76 68.58666667-38.72 93.54666667-24.96 24.96-58.13333333 38.72-93.44 38.72H733.86666667c-4.69333333 0-8.53333333 3.84-8.53333334 8.53333333v64c0 4.69333333 3.84 8.53333333 8.53333334 8.53333333h42.77333333C894.4 776.53333333 989.86666667 681.06666667 989.86666667 563.2c0-98.88-67.30666667-182.08-158.50666667-206.18666667z">
      </path>
</svg>
