<?xml version="1.0" standalone="no"?><!DOCTYPE svg PUBLIC "-//W3C//DTD SVG 1.1//EN" "http://www.w3.org/Graphics/SVG/1.1/DTD/svg11.dtd"><svg t="1639053187678" class="icon" viewBox="0 0 1024 1024" version="1.1" xmlns="http://www.w3.org/2000/svg" p-id="8700" xmlns:xlink="http://www.w3.org/1999/xlink" width="200" height="200"><defs><style type="text/css"></style></defs><path d="M896 192 128 192C92.8 192 64 220.8 64 256l0 512c0 35.2 28.8 64 64 64l768 0c35.2 0 64-28.8 64-64L960 256C960 220.8 931.2 192 896 192zM896 768 128 768 128 256l768 0L896 768z" p-id="8701"></path><path d="M224 700.8l268.8 0c19.2 0 32-12.8 32-32l0-35.2c0-60.8-35.2-112-83.2-144 12.8-19.2 22.4-41.6 22.4-64 0-57.6-48-105.6-105.6-105.6s-105.6 48-105.6 105.6c0 25.6 9.6 48 22.4 64C227.2 518.4 192 572.8 192 636.8l0 32C192 688 204.8 700.8 224 700.8zM316.8 425.6c0-22.4 19.2-41.6 41.6-41.6s41.6 19.2 41.6 41.6-19.2 41.6-41.6 41.6S316.8 448 316.8 425.6zM256 636.8c0-57.6 44.8-105.6 102.4-105.6 54.4 0 102.4 48 102.4 102.4l0 3.2L256 636.8 256 636.8z" p-id="8702"></path><path d="M608 640l160 0c19.2 0 32-12.8 32-32s-12.8-32-32-32l-160 0c-19.2 0-32 12.8-32 32S588.8 640 608 640z" p-id="8703"></path><path d="M608 448l192 0c19.2 0 32-12.8 32-32s-12.8-32-32-32l-192 0c-19.2 0-32 12.8-32 32S588.8 448 608 448z" p-id="8704"></path></svg>