<?xml version="1.0" standalone="no"?><!DOCTYPE svg PUBLIC "-//W3C//DTD SVG 1.1//EN" "http://www.w3.org/Graphics/SVG/1.1/DTD/svg11.dtd"><svg t="1640249089137" class="icon" viewBox="0 0 1024 1024" version="1.1" xmlns="http://www.w3.org/2000/svg" p-id="1225" xmlns:xlink="http://www.w3.org/1999/xlink" width="200" height="200"><defs><style type="text/css"></style></defs><path d="M774.50000029 549.50000029a37.50000029 37.50000029 0 0 0-37.50000029 37.49999942v14.25000058l-55.50000029-55.50000029a104.625 104.625 0 0 0-147.375 0l-26.24999942 26.25000029-93.00000058-93.00000058a106.875 106.875 0 0 0-147.375 0L212.00000029 534.5V324.50000029a37.50000029 37.50000029 0 0 1 37.49999942-37.50000029h262.50000029a37.50000029 37.50000029 0 0 0 0-74.99999971H249.49999971a112.5 112.5 0 0 0-112.5 112.5v450a112.5 112.5 0 0 0 112.5 112.5h450a112.5 112.5 0 0 0 112.5-112.5v-187.50000058a37.50000029 37.50000029 0 0 0-37.49999942-37.49999942zM249.49999971 811.99999971a37.50000029 37.50000029 0 0 1-37.49999942-37.49999942v-133.875l108.74999971-108.75000058a29.62500029 29.62500029 0 0 1 40.87500029 0l118.87499971 118.87500058 161.25000029 161.24999942z m487.50000029-37.49999942a33.37499971 33.37499971 0 0 1-6.75 19.87499971L561.12499971 624.5l26.25000029-26.25000029a28.87499971 28.87499971 0 0 1 41.24999971 0L737 707.37499971z m176.625-551.62500029l-112.5-112.5a37.50000029 37.50000029 0 0 0-12.375-7.875 37.50000029 37.50000029 0 0 0-28.50000029 0 37.50000029 37.50000029 0 0 0-12.375 7.875l-112.5 112.5a37.50000029 37.50000029 0 0 0 53.25000029 53.25000029L737 227.375V437.00000029a37.50000029 37.50000029 0 0 0 74.99999971 0V227.375l48.375 48.75000029a37.50000029 37.50000029 0 0 0 53.25000029 0 37.50000029 37.50000029 0 0 0 0-53.25000029z" p-id="1226"></path></svg>