<?xml version="1.0" standalone="no"?><!DOCTYPE svg PUBLIC "-//W3C//DTD SVG 1.1//EN" "http://www.w3.org/Graphics/SVG/1.1/DTD/svg11.dtd"><svg t="1639390399777" class="icon" viewBox="0 0 1024 1024" version="1.1" xmlns="http://www.w3.org/2000/svg" p-id="880" xmlns:xlink="http://www.w3.org/1999/xlink" width="200" height="200"><defs><style type="text/css"></style></defs><path d="M282.14898682 865.86495972c-15.55664063 14.70465088-15.55664063 38.49197388 0.08651733 53.12988281 15.64315796 14.69970703 40.88726807 14.69970703 56.53042603 0l403.62231445-379.25491333c7.88378906-7.30865479 11.65841675-16.97140503 11.65841675-26.59213257 0-0.81573487-0.43093872-1.49963379-0.47378541-2.27252197-0.17303467-4.02676391-0.81573487-8.06011963-2.44390868-11.8289795-0.55535888-1.24667359-1.62817383-2.14562989-2.31289674-3.30001831-1.80120849-3.17147828-3.60159302-6.4319458-6.42782592-9.17413329L338.76675415 107.25543213c-15.64315796-14.52749633-40.80075073-14.52749633-56.53042602 0.04367065-15.64315796 14.65686035-15.64315796 38.48785401 0 53.1463623L657.52050781 513.14532471 282.14898682 865.86413575z m0 0" p-id="881"></path></svg>